<?xml version="1.0" encoding="utf-8"?>
<!-- Generator: Adobe Illustrator 26.2.1, SVG Export Plug-In . SVG Version: 6.00 Build 0)  -->
<svg version="1.1" id="Layer_1" xmlns="http://www.w3.org/2000/svg" xmlns:xlink="http://www.w3.org/1999/xlink" x="0px" y="0px"
	 viewBox="0 0 482.3 408.3" style="enable-background:new 0 0 482.3 408.3;" xml:space="preserve">
<style type="text/css">
	.st0{fill:#FFFFFF;stroke:#231F20;stroke-width:8;stroke-linecap:round;stroke-linejoin:round;}
	.st1{fill:#FFFFFF;stroke:#231F20;stroke-width:7;stroke-linecap:round;stroke-linejoin:round;}
	.st2{fill:#FFFFFF;stroke:#231F20;stroke-width:6;stroke-linecap:round;stroke-linejoin:round;}
</style>
<g id="a">
</g>
<g id="b">
	<g id="c">
		<g>
			<path class="st0" d="M382.8,295.8c25,0,45.3-20.3,45.3-45.3c0-2.4-0.2-4.8-0.5-7.1c23.9-1.3,42.8-21,42.8-45.2
				c0-12.4-5-23.6-13.1-31.8c8.2-8.2,13.3-19.5,13.3-32c0-22.7-16.7-41.5-38.5-44.8c0.1-1.5,0.2-3,0.2-4.5c0-25-20.3-45.3-45.3-45.3
				c-7,0-13.5,1.6-19.4,4.4C362.4,25.1,344.8,11,324,11c-11.6,0-22.3,4.4-30.3,11.6C285.5,11.3,272.2,4,257.1,4s-28.6,7.5-36.9,19
				c-8.2-8-19.4-13-31.7-13c-20.4,0-37.7,13.5-43.3,32.1c-6.8-4-14.6-6.3-23.1-6.3c-24.2,0-43.9,19-45.2,42.8
				c-2.3-0.4-4.7-0.6-7.1-0.6c-25,0-45.3,20.3-45.3,45.3c0,6.4,1.4,12.6,3.8,18.1C13.9,149,4,164.1,4,181.5
				c0,24.4,19.3,44.2,43.4,45.2c-1.4,4.3-2.1,9-2.1,13.8c0,25,20.3,45.3,45.3,45.3c7.6,0,14.7-1.9,21-5.1
				c3,22.1,21.9,39.1,44.8,39.1c14,0,26.5-6.4,34.8-16.3c5.2,19.2,22.8,33.3,43.7,33.3c18.9,0,35.1-11.6,41.9-28
				c7.8,13.7,22.5,23,39.4,23c23.7,0,43.2-18.3,45.1-41.5C367.6,293.8,375,295.8,382.8,295.8L382.8,295.8z"/>
			<circle class="st1" cx="393.2" cy="346.9" r="31.9"/>
			<circle class="st2" cx="455.9" cy="381.9" r="23.4"/>
		</g>
	</g>
</g>
<g>
	<path d="M123.8,129c0.2,3.4-1.1,6.3-3.9,8.6c-2.8,2.3-6.7,3.6-11.7,3.8c-2.9,0.1-5.4,0-7.6-0.4c-2.2-0.4-4.2-0.9-6.2-1.6l-0.4-8.4
		l1-0.1c1.9,1.4,4.1,2.4,6.4,3.1c2.4,0.7,4.6,1,6.7,0.9c0.5,0,1.3-0.1,2.2-0.3c0.9-0.1,1.6-0.3,2.2-0.6c0.7-0.3,1.2-0.7,1.6-1.1
		c0.4-0.4,0.6-1.1,0.6-1.9c0-0.8-0.4-1.4-1.1-1.9c-0.7-0.5-1.7-0.9-2.9-1.1c-1.3-0.2-2.7-0.5-4.2-0.7c-1.5-0.2-2.9-0.5-4.2-0.8
		c-3-0.8-5.2-2-6.6-3.6c-1.4-1.6-2.1-3.6-2.3-6c-0.2-3.3,1.2-6,4-8.2c2.8-2.2,6.5-3.4,11.1-3.7c2.3-0.1,4.6,0,6.9,0.3
		c2.3,0.3,4.2,0.8,5.9,1.4l0.4,8.1l-1,0c-1.5-1.1-3.2-1.9-5.3-2.6c-2.1-0.7-4.2-0.9-6.3-0.8c-0.8,0-1.5,0.1-2.2,0.3
		c-0.7,0.1-1.4,0.4-2.1,0.7c-0.6,0.3-1.1,0.7-1.5,1.2c-0.4,0.5-0.6,1.1-0.6,1.7c0,0.9,0.4,1.6,1.2,2.1c0.7,0.5,2.1,0.8,4.1,1.1
		c1.3,0.2,2.5,0.4,3.7,0.6c1.2,0.2,2.5,0.5,3.9,0.8c2.7,0.7,4.8,1.8,6.1,3.3C122.9,124.7,123.6,126.6,123.8,129z"/>
	<path d="M163.6,120.5c0.3,5.6-1.1,10.1-4.1,13.5c-3,3.4-7.4,5.3-13,5.6c-5.6,0.3-10.1-1.1-13.5-4.2c-3.4-3.1-5.2-7.5-5.5-13
		c-0.3-5.6,1.1-10.2,4.1-13.6s7.4-5.3,13-5.6c5.6-0.3,10.1,1.1,13.5,4.2C161.5,110.5,163.3,114.8,163.6,120.5z M152.1,129.9
		c0.8-1.1,1.4-2.4,1.8-3.9c0.3-1.5,0.5-3.2,0.4-5.1c-0.1-2.1-0.4-3.9-1-5.3c-0.6-1.4-1.3-2.6-2.1-3.5c-0.8-0.9-1.8-1.5-2.9-1.9
		c-1.1-0.4-2.2-0.5-3.3-0.5c-1.1,0.1-2.2,0.3-3.2,0.8c-1,0.5-1.9,1.2-2.7,2.2c-0.7,0.9-1.3,2.2-1.7,3.7c-0.4,1.6-0.6,3.4-0.5,5.4
		c0.1,2.1,0.4,3.8,1,5.3c0.6,1.4,1.2,2.6,2.1,3.5c0.8,0.9,1.8,1.5,2.9,1.9c1.1,0.4,2.2,0.5,3.3,0.5c1.2-0.1,2.3-0.3,3.3-0.8
		C150.5,131.7,151.4,130.9,152.1,129.9z"/>
	<path d="M205.1,135.9l-11,0.6l-10.2-12.3l-4.2,0.2l0.7,12.8l-9,0.5l-1.8-35l15.1-0.8c2.1-0.1,3.9-0.1,5.4,0.1
		c1.5,0.2,2.9,0.6,4.3,1.3c1.4,0.7,2.5,1.7,3.3,2.9c0.8,1.2,1.3,2.7,1.4,4.6c0.1,2.6-0.4,4.7-1.5,6.4c-1.1,1.7-2.8,3.1-4.9,4.3
		L205.1,135.9z M189.8,112.3c0-0.9-0.3-1.6-0.7-2.2c-0.4-0.6-1-1.1-1.9-1.4c-0.6-0.2-1.3-0.3-2.2-0.3c-0.8,0-1.8,0-2.8,0.1l-3.3,0.2
		l0.5,9.4l2.8-0.1c1.4-0.1,2.6-0.2,3.6-0.4c1-0.2,1.8-0.6,2.4-1.1c0.6-0.5,1-1.1,1.3-1.7C189.7,114.1,189.8,113.3,189.8,112.3z"/>
	<path d="M242.8,133.9l-11,0.6l-10.2-12.3l-4.2,0.2l0.7,12.8l-9,0.5l-1.8-35l15.1-0.8c2.1-0.1,3.9-0.1,5.4,0.1
		c1.5,0.2,2.9,0.6,4.3,1.3c1.4,0.7,2.5,1.7,3.3,2.9c0.8,1.2,1.3,2.7,1.4,4.6c0.1,2.6-0.4,4.7-1.5,6.4c-1.1,1.7-2.8,3.1-4.9,4.3
		L242.8,133.9z M227.4,110.4c0-0.9-0.3-1.6-0.7-2.2c-0.4-0.6-1-1.1-1.9-1.4c-0.6-0.2-1.3-0.3-2.2-0.3c-0.8,0-1.8,0-2.8,0.1l-3.3,0.2
		l0.5,9.4l2.8-0.1c1.4-0.1,2.6-0.2,3.6-0.4c1-0.2,1.8-0.6,2.4-1.1c0.6-0.5,1-1.1,1.3-1.7C227.4,112.1,227.5,111.4,227.4,110.4z"/>
	<path d="M275.7,97.1l-11.8,22.1l0.7,13.5l-9,0.5l-0.7-13.1l-14.2-21.2l10.3-0.5l8.2,13.1l6.6-13.9L275.7,97.1z"/>
	<path d="M328,118.8c0.1,1.7-0.2,3.2-0.8,4.6c-0.6,1.4-1.5,2.5-2.6,3.5c-1.3,1.1-2.8,1.9-4.4,2.4c-1.6,0.5-3.7,0.9-6.3,1l-15.3,0.8
		l-1.8-35l13.6-0.7c2.8-0.1,4.9-0.2,6.2,0c1.3,0.1,2.6,0.5,4,1c1.4,0.6,2.4,1.5,3.1,2.6c0.7,1.1,1.1,2.4,1.2,3.8
		c0.1,1.7-0.3,3.2-1.1,4.5c-0.8,1.3-2,2.4-3.6,3.2l0,0.2c2.3,0.3,4.2,1.2,5.6,2.5C327.1,114.6,327.9,116.4,328,118.8z M315.7,105
		c0-0.6-0.2-1.2-0.5-1.7c-0.3-0.6-0.9-1-1.6-1.2c-0.7-0.2-1.5-0.3-2.5-0.3c-1,0-2.4,0.1-4.1,0.2l-0.8,0l0.4,7.4l1.4-0.1
		c1.4-0.1,2.6-0.2,3.6-0.3c1-0.1,1.8-0.3,2.3-0.6c0.8-0.4,1.3-0.9,1.5-1.5C315.6,106.4,315.7,105.7,315.7,105z M318.6,119.1
		c-0.1-1.1-0.3-2-0.8-2.5c-0.5-0.6-1.2-1-2.3-1.2c-0.7-0.2-1.7-0.2-2.9-0.2c-1.2,0-2.5,0.1-3.9,0.2l-2,0.1l0.4,8.7l0.7,0
		c2.5-0.1,4.3-0.2,5.4-0.3c1.1-0.1,2.1-0.3,3-0.8c0.9-0.4,1.5-1,1.9-1.7C318.5,120.7,318.7,120,318.6,119.1z"/>
	<path d="M365.3,114.9c0.2,4.3-0.9,7.7-3.4,10.1c-2.5,2.4-6.3,3.8-11.5,4.1c-5.1,0.3-9.1-0.7-11.8-2.9c-2.7-2.2-4.2-5.4-4.4-9.7
		L333,94.2l9.1-0.5l1.1,21.8c0.1,2.4,0.7,4.2,1.8,5.3c1.1,1.1,2.8,1.6,5.1,1.5c2.3-0.1,3.9-0.8,4.9-2c1-1.2,1.4-3.1,1.3-5.6L355,93
		l9.1-0.5L365.3,114.9z"/>
	<path d="M400.3,97.5l-10.9,0.6l1.5,28.2l-9,0.5l-1.5-28.2l-10.9,0.6l-0.3-6.8l30.9-1.6L400.3,97.5z"/>
	<path d="M138.1,173.4l-10.9,0.6l1.5,28.2l-9,0.5l-1.5-28.2l-10.9,0.6l-0.3-6.8l30.9-1.6L138.1,173.4z"/>
	<path d="M176.4,199.8l-9,0.5l-0.8-15.4l-13.3,0.7l0.8,15.4l-9,0.5l-1.8-35l9-0.5l0.7,12.8l13.3-0.7l-0.7-12.8l9-0.5L176.4,199.8z"
		/>
	<path d="M204.2,198.3l-20.5,1.1l-0.3-6.2l5.7-0.3l-1.2-22.6l-5.7,0.3l-0.3-6.2l20.5-1.1l0.3,6.2l-5.7,0.3l1.2,22.6l5.7-0.3
		L204.2,198.3z"/>
	<path d="M239,185.5c0.2,3.4-1.1,6.3-3.9,8.6c-2.8,2.3-6.7,3.6-11.7,3.8c-2.9,0.1-5.4,0-7.6-0.4c-2.2-0.4-4.2-0.9-6.2-1.6l-0.4-8.4
		l1-0.1c1.9,1.4,4.1,2.4,6.4,3.1c2.4,0.7,4.6,1,6.7,0.9c0.5,0,1.3-0.1,2.2-0.3c0.9-0.1,1.6-0.3,2.2-0.6c0.7-0.3,1.2-0.7,1.6-1.1
		c0.4-0.4,0.6-1.1,0.6-1.9c0-0.8-0.4-1.4-1.1-1.9c-0.7-0.5-1.7-0.9-2.9-1.1c-1.3-0.2-2.7-0.5-4.2-0.7s-2.9-0.5-4.2-0.8
		c-3-0.8-5.2-2-6.6-3.6c-1.4-1.6-2.1-3.6-2.3-6c-0.2-3.3,1.2-6,4-8.2c2.8-2.2,6.5-3.4,11.1-3.7c2.3-0.1,4.6,0,6.9,0.3
		c2.3,0.3,4.2,0.8,5.9,1.4l0.4,8.1l-1,0c-1.5-1.1-3.2-1.9-5.3-2.6c-2.1-0.7-4.2-0.9-6.3-0.8c-0.8,0-1.5,0.1-2.2,0.3
		c-0.7,0.1-1.4,0.4-2.1,0.7c-0.6,0.3-1.1,0.7-1.5,1.2c-0.4,0.5-0.6,1.1-0.6,1.7c0,0.9,0.4,1.6,1.2,2.1c0.7,0.5,2.1,0.8,4.1,1.1
		c1.3,0.2,2.5,0.4,3.7,0.6c1.2,0.2,2.5,0.5,3.9,0.8c2.7,0.7,4.8,1.8,6.1,3.3C238.2,181.2,238.9,183.1,239,185.5z"/>
	<path d="M289.7,182.9c0.2,3.4-1.1,6.3-4,8.6c-2.8,2.3-6.7,3.6-11.7,3.8c-2.9,0.1-5.4,0-7.6-0.4c-2.2-0.4-4.2-0.9-6.2-1.6l-0.4-8.4
		l1-0.1c1.9,1.4,4.1,2.4,6.4,3.1c2.4,0.7,4.6,1,6.7,0.9c0.5,0,1.3-0.1,2.2-0.3c0.9-0.1,1.6-0.3,2.2-0.6c0.7-0.3,1.2-0.7,1.6-1.1
		s0.6-1.1,0.6-1.9c0-0.8-0.4-1.4-1.1-1.9c-0.7-0.5-1.7-0.9-2.9-1.1c-1.3-0.2-2.7-0.5-4.2-0.7s-2.9-0.5-4.2-0.8c-3-0.8-5.2-2-6.6-3.6
		c-1.4-1.6-2.1-3.6-2.3-6c-0.2-3.3,1.2-6,4-8.2c2.8-2.2,6.5-3.4,11.1-3.7c2.3-0.1,4.6,0,6.9,0.3c2.3,0.3,4.2,0.8,5.9,1.4l0.4,8.1
		l-1,0c-1.5-1.1-3.2-1.9-5.3-2.6c-2.1-0.7-4.2-0.9-6.3-0.8c-0.8,0-1.5,0.1-2.2,0.3c-0.7,0.1-1.4,0.4-2.1,0.7
		c-0.6,0.3-1.1,0.7-1.5,1.2c-0.4,0.5-0.6,1.1-0.6,1.7c0,0.9,0.4,1.6,1.2,2.1c0.7,0.5,2.1,0.8,4.1,1.1c1.3,0.2,2.5,0.4,3.7,0.6
		c1.2,0.2,2.5,0.5,3.9,0.8c2.7,0.7,4.8,1.8,6.1,3.3C288.8,178.6,289.6,180.5,289.7,182.9z"/>
	<path d="M320.4,172.7l-2.4,4l-7.8-4.7l0.7,8.3l-5,0.3l-0.2-8.1l-7.1,5.3l-2.8-3.8l8.1-5.3l-8.6-4.5l2.3-4.1l7.6,4.6l-0.6-8.1l5-0.3
		l0.2,8.2l7.2-5.3l2.8,3.8l-8.2,5.3L320.4,172.7z"/>
	<path d="M354.6,170.9l-2.4,4l-7.8-4.7l0.7,8.3l-5,0.3l-0.2-8.1l-7.1,5.3l-2.8-3.8l8.1-5.3l-8.6-4.5l2.3-4.1l7.6,4.6l-0.6-8.1l5-0.3
		l0.2,8.2l7.2-5.3l2.8,3.8l-8.2,5.3L354.6,170.9z"/>
	<path d="M390.8,160.4l-10.9,0.6l1.5,28.2l-9,0.5l-1.5-28.2l-10.9,0.6l-0.3-6.8l30.9-1.6L390.8,160.4z"/>
	<path d="M191.4,250.4c0.2,3.4-1.1,6.3-3.9,8.6c-2.8,2.3-6.7,3.6-11.7,3.8c-2.9,0.1-5.4,0-7.6-0.4c-2.2-0.4-4.2-0.9-6.2-1.6
		l-0.4-8.4l1-0.1c1.9,1.4,4.1,2.4,6.4,3.1c2.4,0.7,4.6,1,6.7,0.9c0.5,0,1.3-0.1,2.2-0.3c0.9-0.1,1.6-0.3,2.2-0.6
		c0.7-0.3,1.2-0.7,1.6-1.1c0.4-0.4,0.6-1.1,0.6-1.9c0-0.8-0.4-1.4-1.1-1.9c-0.7-0.5-1.7-0.9-2.9-1.1c-1.3-0.2-2.7-0.5-4.2-0.7
		c-1.5-0.2-2.9-0.5-4.2-0.8c-3-0.8-5.2-2-6.6-3.6c-1.4-1.6-2.1-3.6-2.3-6c-0.2-3.3,1.2-6,4-8.2c2.8-2.2,6.5-3.4,11.1-3.7
		c2.3-0.1,4.6,0,6.9,0.3c2.3,0.3,4.2,0.8,5.9,1.4l0.4,8.1l-1,0c-1.5-1.1-3.2-1.9-5.3-2.6c-2.1-0.7-4.2-0.9-6.3-0.8
		c-0.8,0-1.5,0.1-2.2,0.3c-0.7,0.1-1.4,0.4-2.1,0.7c-0.6,0.3-1.1,0.6-1.5,1.1c-0.4,0.5-0.6,1.1-0.6,1.7c0,0.9,0.4,1.6,1.2,2.1
		c0.7,0.5,2.1,0.8,4.1,1.1c1.3,0.2,2.5,0.4,3.7,0.6c1.2,0.2,2.5,0.5,3.9,0.8c2.7,0.7,4.8,1.8,6.1,3.3
		C190.5,246.1,191.3,248,191.4,250.4z"/>
	<path d="M222.1,240.2l-2.4,4l-7.8-4.7l0.7,8.3l-5,0.3l-0.2-8.1l-7.1,5.3l-2.8-3.8l8.1-5.3l-8.6-4.5l2.3-4.1l7.6,4.6l-0.6-8.1l5-0.3
		l0.2,8.2l7.2-5.3l2.8,3.8l-8.2,5.3L222.1,240.2z"/>
	<path d="M256.3,238.4l-2.4,4l-7.8-4.7l0.7,8.3l-5,0.3l-0.2-8.1l-7.1,5.3l-2.8-3.8l8.1-5.3l-8.6-4.5l2.3-4.1l7.6,4.6l-0.6-8.1l5-0.3
		l0.2,8.2l7.2-5.3l2.8,3.8l-8.2,5.3L256.3,238.4z"/>
	<path d="M290.5,236.6l-2.4,4l-7.8-4.7l0.7,8.3l-5,0.3l-0.2-8.1l-7.1,5.3l-2.8-3.8l8.1-5.3l-8.6-4.5l2.3-4.1l7.6,4.6l-0.6-8.1l5-0.3
		l0.2,8.2l7.2-5.3l2.8,3.8l-8.2,5.3L290.5,236.6z"/>
	<path d="M328.2,243.4c0.2,3.4-1.1,6.3-4,8.6c-2.8,2.3-6.7,3.6-11.7,3.8c-2.9,0.1-5.4,0-7.6-0.4c-2.2-0.4-4.2-0.9-6.2-1.6l-0.4-8.4
		l1-0.1c1.9,1.4,4.1,2.4,6.4,3.1c2.4,0.7,4.6,1,6.7,0.9c0.5,0,1.3-0.1,2.2-0.3c0.9-0.1,1.6-0.3,2.2-0.6c0.7-0.3,1.2-0.7,1.6-1.1
		c0.4-0.4,0.6-1.1,0.6-1.9c0-0.8-0.4-1.4-1.1-1.9c-0.7-0.5-1.7-0.9-2.9-1.1c-1.3-0.2-2.7-0.5-4.2-0.7s-2.9-0.5-4.2-0.8
		c-3-0.8-5.2-2-6.6-3.6c-1.4-1.6-2.1-3.6-2.3-6c-0.2-3.3,1.2-6,4-8.2c2.8-2.2,6.5-3.4,11.1-3.7c2.3-0.1,4.6,0,6.9,0.3
		c2.3,0.3,4.2,0.8,5.9,1.4l0.4,8.1l-1,0c-1.5-1.1-3.2-1.9-5.3-2.6c-2.1-0.7-4.2-0.9-6.3-0.8c-0.8,0-1.5,0.1-2.2,0.3
		c-0.7,0.1-1.4,0.4-2.1,0.7c-0.6,0.3-1.1,0.6-1.5,1.2c-0.4,0.5-0.6,1.1-0.6,1.7c0,0.9,0.4,1.6,1.2,2.1s2.1,0.8,4.1,1.1
		c1.3,0.2,2.5,0.4,3.7,0.6c1.2,0.2,2.5,0.5,3.9,0.8c2.7,0.7,4.8,1.8,6.1,3.3S328.1,241,328.2,243.4z"/>
	<path d="M343.6,253.6l-8.8,0.5l-0.5-9.2l8.8-0.5L343.6,253.6z"/>
</g>
</svg>
