<?xml version="1.0" encoding="UTF-8"?><svg xmlns="http://www.w3.org/2000/svg" viewBox="0 0 630.08 971.81"><defs><style>.d{fill:#fff;}.d,.e{stroke:#231f20;stroke-miterlimit:10;}.e{fill:#bdcddf;}</style></defs><g id="a"/><g id="b"><g id="c"><g><rect class="d" x=".5" y=".5" width="629.08" height="502.38"/><path class="e" d="M629.58,472.88c-17.7-19.82-41.42-39.3-66.92-36.49-30.37,3.35-37.96,35.51-67.57,36.49-32.31,1.07-41.25-36.65-72.97-35.14-29.79,1.43-32.39,35.2-64.86,40.54-35.99,5.93-46.93-33.24-90.54-33.78-41.52-.51-50.47,34.76-89.19,29.73-33.01-4.29-39.16-31.57-66.22-28.38-26.81,3.16-32.63,31.35-58.11,33.78-20.84,1.99-39.69-14.7-52.7-29.73V971.31H629.58V472.88Z"/></g></g></g></svg>